<svg id="visual" viewBox="0 0 900 600" width="900" height="600" xmlns="http://www.w3.org/2000/svg" xmlns:xlink="http://www.w3.org/1999/xlink" version="1.1"><rect x="0" y="0" width="900" height="600" fill="#fff9ef"></rect><path d="M0 248L37.5 247.3C75 246.7 150 245.3 225 251C300 256.7 375 269.3 450 283.8C525 298.3 600 314.7 675 307.5C750 300.3 825 269.7 862.5 254.3L900 239L900 601L862.5 601C825 601 750 601 675 601C600 601 525 601 450 601C375 601 300 601 225 601C150 601 75 601 37.5 601L0 601Z" fill="#FCAF3C" stroke-linecap="round" stroke-linejoin="miter"></path></svg>