<svg id="visual" viewBox="0 0 900 600" width="900" height="600" xmlns="http://www.w3.org/2000/svg" xmlns:xlink="http://www.w3.org/1999/xlink" version="1.1"><rect x="0" y="0" width="900" height="600" fill="#fff9ef"></rect><path d="M0 206L15 202.2C30 198.3 60 190.7 90 187.2C120 183.7 150 184.3 180 187.5C210 190.7 240 196.3 270 203.3C300 210.3 330 218.7 360 215.7C390 212.7 420 198.3 450 192C480 185.7 510 187.3 540 192.7C570 198 600 207 630 213.3C660 219.7 690 223.3 720 216.5C750 209.7 780 192.3 810 184.8C840 177.3 870 179.7 885 180.8L900 182L900 0L885 0C870 0 840 0 810 0C780 0 750 0 720 0C690 0 660 0 630 0C600 0 570 0 540 0C510 0 480 0 450 0C420 0 390 0 360 0C330 0 300 0 270 0C240 0 210 0 180 0C150 0 120 0 90 0C60 0 30 0 15 0L0 0Z" fill="#8d7147"></path><path d="M0 140L15 146C30 152 60 164 90 166.5C120 169 150 162 180 162.7C210 163.3 240 171.7 270 169.8C300 168 330 156 360 154.3C390 152.7 420 161.3 450 160.3C480 159.3 510 148.7 540 146.5C570 144.3 600 150.7 630 151.3C660 152 690 147 720 148.7C750 150.3 780 158.7 810 157.8C840 157 870 147 885 142L900 137L900 0L885 0C870 0 840 0 810 0C780 0 750 0 720 0C690 0 660 0 630 0C600 0 570 0 540 0C510 0 480 0 450 0C420 0 390 0 360 0C330 0 300 0 270 0C240 0 210 0 180 0C150 0 120 0 90 0C60 0 30 0 15 0L0 0Z" fill="#b18645"></path><path d="M0 101L15 103.8C30 106.7 60 112.3 90 111.5C120 110.7 150 103.3 180 100.3C210 97.3 240 98.7 270 103.7C300 108.7 330 117.3 360 116.7C390 116 420 106 450 106.5C480 107 510 118 540 120.8C570 123.7 600 118.3 630 118C660 117.7 690 122.3 720 121.2C750 120 780 113 810 106C840 99 870 92 885 88.5L900 85L900 0L885 0C870 0 840 0 810 0C780 0 750 0 720 0C690 0 660 0 630 0C600 0 570 0 540 0C510 0 480 0 450 0C420 0 390 0 360 0C330 0 300 0 270 0C240 0 210 0 180 0C150 0 120 0 90 0C60 0 30 0 15 0L0 0Z" fill="#d69a41"></path><path d="M0 66L15 64.5C30 63 60 60 90 56.2C120 52.3 150 47.7 180 49.7C210 51.7 240 60.3 270 61.3C300 62.3 330 55.7 360 52C390 48.3 420 47.7 450 48.8C480 50 510 53 540 54.2C570 55.3 600 54.7 630 54C660 53.3 690 52.7 720 55.8C750 59 780 66 810 68.8C840 71.7 870 70.3 885 69.7L900 69L900 0L885 0C870 0 840 0 810 0C780 0 750 0 720 0C690 0 660 0 630 0C600 0 570 0 540 0C510 0 480 0 450 0C420 0 390 0 360 0C330 0 300 0 270 0C240 0 210 0 180 0C150 0 120 0 90 0C60 0 30 0 15 0L0 0Z" fill="#fcaf3c"></path></svg>