<svg id="visual" viewBox="0 0 900 600" width="900" height="600" xmlns="http://www.w3.org/2000/svg" xmlns:xlink="http://www.w3.org/1999/xlink" version="1.1"><rect x="0" y="0" width="900" height="600" fill="#fff9ef"></rect><path d="M0 370L18.8 369.5C37.7 369 75.3 368 112.8 364.8C150.3 361.7 187.7 356.3 225.2 360.5C262.7 364.7 300.3 378.3 337.8 378.2C375.3 378 412.7 364 450.2 367C487.7 370 525.3 390 562.8 398.5C600.3 407 637.7 404 675.2 399.3C712.7 394.7 750.3 388.3 787.8 389.2C825.3 390 862.7 398 881.3 402L900 406L900 601L881.3 601C862.7 601 825.3 601 787.8 601C750.3 601 712.7 601 675.2 601C637.7 601 600.3 601 562.8 601C525.3 601 487.7 601 450.2 601C412.7 601 375.3 601 337.8 601C300.3 601 262.7 601 225.2 601C187.7 601 150.3 601 112.8 601C75.3 601 37.7 601 18.8 601L0 601Z" fill="#8d7147"></path><path d="M0 395L18.8 396.8C37.7 398.7 75.3 402.3 112.8 413C150.3 423.7 187.7 441.3 225.2 450C262.7 458.7 300.3 458.3 337.8 458.7C375.3 459 412.7 460 450.2 451.5C487.7 443 525.3 425 562.8 414C600.3 403 637.7 399 675.2 401.3C712.7 403.7 750.3 412.3 787.8 423.3C825.3 434.3 862.7 447.7 881.3 454.3L900 461L900 601L881.3 601C862.7 601 825.3 601 787.8 601C750.3 601 712.7 601 675.2 601C637.7 601 600.3 601 562.8 601C525.3 601 487.7 601 450.2 601C412.7 601 375.3 601 337.8 601C300.3 601 262.7 601 225.2 601C187.7 601 150.3 601 112.8 601C75.3 601 37.7 601 18.8 601L0 601Z" fill="#a88045"></path><path d="M0 468L18.8 471C37.7 474 75.3 480 112.8 478.3C150.3 476.7 187.7 467.3 225.2 461.3C262.7 455.3 300.3 452.7 337.8 457.3C375.3 462 412.7 474 450.2 473.8C487.7 473.7 525.3 461.3 562.8 456.8C600.3 452.3 637.7 455.7 675.2 463.3C712.7 471 750.3 483 787.8 482.2C825.3 481.3 862.7 467.7 881.3 460.8L900 454L900 601L881.3 601C862.7 601 825.3 601 787.8 601C750.3 601 712.7 601 675.2 601C637.7 601 600.3 601 562.8 601C525.3 601 487.7 601 450.2 601C412.7 601 375.3 601 337.8 601C300.3 601 262.7 601 225.2 601C187.7 601 150.3 601 112.8 601C75.3 601 37.7 601 18.8 601L0 601Z" fill="#c39043"></path><path d="M0 486L18.8 491.5C37.7 497 75.3 508 112.8 510C150.3 512 187.7 505 225.2 502.5C262.7 500 300.3 502 337.8 504.5C375.3 507 412.7 510 450.2 515.7C487.7 521.3 525.3 529.7 562.8 533.2C600.3 536.7 637.7 535.3 675.2 528.2C712.7 521 750.3 508 787.8 501.5C825.3 495 862.7 495 881.3 495L900 495L900 601L881.3 601C862.7 601 825.3 601 787.8 601C750.3 601 712.7 601 675.2 601C637.7 601 600.3 601 562.8 601C525.3 601 487.7 601 450.2 601C412.7 601 375.3 601 337.8 601C300.3 601 262.7 601 225.2 601C187.7 601 150.3 601 112.8 601C75.3 601 37.7 601 18.8 601L0 601Z" fill="#dfa040"></path><path d="M0 568L18.8 568.3C37.7 568.7 75.3 569.3 112.8 565.3C150.3 561.3 187.7 552.7 225.2 547.8C262.7 543 300.3 542 337.8 539.3C375.3 536.7 412.7 532.3 450.2 536C487.7 539.7 525.3 551.3 562.8 558.2C600.3 565 637.7 567 675.2 568C712.7 569 750.3 569 787.8 563.2C825.3 557.3 862.7 545.7 881.3 539.8L900 534L900 601L881.3 601C862.7 601 825.3 601 787.8 601C750.3 601 712.7 601 675.2 601C637.7 601 600.3 601 562.8 601C525.3 601 487.7 601 450.2 601C412.7 601 375.3 601 337.8 601C300.3 601 262.7 601 225.2 601C187.7 601 150.3 601 112.8 601C75.3 601 37.7 601 18.8 601L0 601Z" fill="#fcaf3c"></path></svg>