<svg id="visual" viewBox="0 0 900 400" width="900" height="600" xmlns="http://www.w3.org/2000/svg" xmlns:xlink="http://www.w3.org/1999/xlink" version="1.1"><rect x="0" y="0" width="900" height="600" fill="#fff9ef"></rect><path d="M0 108L16.7 103.3C33.3 98.7 66.7 89.3 100 84.7C133.3 80 166.7 80 200 82.2C233.3 84.3 266.7 88.7 300 92.3C333.3 96 366.7 99 400 94.2C433.3 89.3 466.7 76.7 500 75.3C533.3 74 566.7 84 600 89C633.3 94 666.7 94 700 92C733.3 90 766.7 86 800 89.3C833.3 92.7 866.7 103.3 883.3 108.7L900 114L900 0L883.3 0C866.7 0 833.3 0 800 0C766.7 0 733.3 0 700 0C666.7 0 633.3 0 600 0C566.7 0 533.3 0 500 0C466.7 0 433.3 0 400 0C366.7 0 333.3 0 300 0C266.7 0 233.3 0 200 0C166.7 0 133.3 0 100 0C66.7 0 33.3 0 16.7 0L0 0Z" fill="#FCAF3C" stroke-linecap="round" stroke-linejoin="miter"></path></svg>